<svg height="512" viewBox="0 0 60 60" width="512" xmlns="http://www.w3.org/2000/svg"><g id="Page-1" fill="none" fill-rule="evenodd"><g id="032---Server-Coding" fill-rule="nonzero"><ellipse id="Oval" cx="21" cy="5" fill="#e8edfc" rx="20" ry="4"/><path id="Shape" d="m21 1c-.506 0-1 .008-1.5.015 10.346.154 18.5 1.876 18.5 3.985s-8.154 3.831-18.5 3.985c.5.007.994.015 1.5.015 11.05 0 20-1.79 20-4s-8.95-4-20-4z" fill="#cad9fc"/><path id="Shape" d="m25 21.92v13c-1.29.05-2.63.08-4 .08-11.05 0-20-1.79-20-4v-13c0 2.21 8.95 4 20 4 1.37 0 2.71-.03 4-.08z" fill="#e8edfc"/><path id="Shape" d="m25 34.92v14c-1.29.05-2.63.08-4 .08-11.05 0-20-1.79-20-4v-14c0 2.21 8.95 4 20 4 1.37 0 2.71-.03 4-.08z" fill="#a4c2f7"/><path id="Shape" d="m41 5v12h-13c-1.6568542 0-3 1.3431458-3 3v1.92c-1.29.05-2.63.08-4 .08-11.05 0-20-1.79-20-4v-13c0 2.21 8.95 4 20 4s20-1.79 20-4z" fill="#a4c2f7"/><path id="Shape" d="m38 7.1v9.9h3v-12c0 .772-1.11 1.489-3 2.1z" fill="#7facfa"/><path id="Shape" d="m59 20v2c0 .5522847-.4477153 1-1 1h-5v-3c0-1.6568542 1.3431458-3 3-3s3 1.3431458 3 3z" fill="#a4c2f7"/><path id="Shape" d="m50 59h-28c-1.6568542 0-3-1.3431458-3-3v-2c0-.5522847.4477153-1 1-1h26c.5522847 0 1 .4477153 1 1v1.83c-.0345822 1.6154481 1.173314 2.9884525 2.78 3.16.0730401.0080848.1465276.0114252.22.01z" fill="#e8edfc"/><path id="Shape" d="m56 17c-1.6568542 0-3 1.3431458-3 3v36c0 1.6568542-1.3431458 3-3 3-.0734724.0014252-.1469599-.0019152-.22-.01-1.606686-.1715475-2.8145822-1.5445519-2.78-3.16v-1.83c0-.5522847-.4477153-1-1-1h-21v-33c0-1.6568542 1.3431458-3 3-3z" fill="#e8edfc"/><path id="Shape" d="m53 17c-1.6568542 0-3 1.3431458-3 3v36c.0112977 1.0640464-.5573239 2.0499381-1.484 2.573.3812656.2394827.8150768.3825992 1.264.417.0730401.0080848.1465276.0114252.22.01 1.6568542 0 3-1.3431458 3-3v-36c0-1.6568542 1.3431458-3 3-3z" fill="#cad9fc"/><path id="Shape" d="m22.472 48.985c-10.333-.157-18.472-1.878-18.472-3.985v-40c0-2.109 8.154-3.831 18.5-3.985-.5-.007-.994-.015-1.5-.015-11.05 0-20 1.79-20 4v40c0 2.21 8.95 4 20 4 .5 0 .984-.008 1.472-.015z" fill="#fff"/><path id="Shape" d="m13.1 2.329-.178-1.992c2.691-.237 5.385-.337 8.078-.337v2c-2.64 0-5.281.1-7.9.329z" fill="#fff"/><g fill="#428dff"><circle id="Oval" cx="5" cy="11" r="1"/><circle id="Oval" cx="5" cy="24" r="1"/><circle id="Oval" cx="5" cy="37" r="1"/><path id="Shape" d="m17.021 2.08c-.5522847.00276142-1.0022386-.44271525-1.005-.995s.4427153-1.00223858.995-1.005h.01c.5522847.00000001 1 .44771526 1 1s-.4477153.99999999-1 1z"/><path id="Shape" d="m5 18c.55228475 0 1-.4477153 1-1v-2c0-.5522847-.44771525-1-1-1s-1 .4477153-1 1v2c0 .5522847.44771525 1 1 1z"/><path id="Shape" d="m5 31c.55228475 0 1-.4477153 1-1v-2c0-.5522847-.44771525-1-1-1s-1 .4477153-1 1v2c0 .5522847.44771525 1 1 1z"/><path id="Shape" d="m5 40c-.55228475 0-1 .4477153-1 1v2c0 .5522847.44771525 1 1 1s1-.4477153 1-1v-2c0-.5522847-.44771525-1-1-1z"/><path id="Shape" d="m56 16h-14v-11c0-4.943-20.143-5-21-5-.5522847 0-1 .44771525-1 1s.4477153 1 1 1c11.836 0 18.565 1.954 19.007 2.952-.442 1.094-7.171 3.048-19.007 3.048-11.768 0-18.481-1.931-18.986-2.981.0164011-.02590105.03624979-.04945034.059-.07.12358948-.12844639.26463905-.23886229.419-.328.40902508-.24031706.83996223-.44122016 1.287-.6.97965462-.34141159 1.98213373-.61341759 3-.814 2.08818072-.41505719 4.1987498-.70821961 6.321-.878.3579738-.02912555.672835-.24798464.8248788-.57337096.1520437-.32538632.1179153-.70731833-.0894104-1.00059232-.2073257-.29327398-.556002-.45284108-.9134684-.41803672-2.2012728.17770995-4.39031763.48356185-6.556.916-1.11129771.22075851-2.20567093.51949733-3.275.894-.57602403.2039495-1.13067474.46385829-1.656.776-.31309469.1866055-.59796489.41692608-.846.684-.36467063.37364423-.57500134.8710817-.589 1.393v40c0 4.943 20.143 5 21 5 .973 0 1.982-.02 3-.05v2.05h-4c-1.1045695 0-2 .8954305-2 2v2c0 2.209139 1.790861 4 4 4h28c2.209139 0 4-1.790861 4-4v-32h4c1.1045695 0 2-.8954305 2-2v-2c0-2.209139-1.790861-4-4-4zm-54-8.638c5.109 2.599 18.309 2.638 19 2.638s13.891-.039 19-2.638v8.638h-12c-2.209139 0-4 1.790861-4 4v.949c-1.019.031-2.028.051-3 .051-11.781 0-18.5-1.935-19-3.032zm0 13c5.109 2.599 18.309 2.638 19 2.638.973 0 1.982-.02 3-.05v11c-1.019.031-2.028.051-3 .051-11.781-.001-18.5-1.936-19-3.033zm19 27.638c-11.781 0-18.5-1.935-19-3.032v-11.606c5.109 2.599 18.309 2.638 19 2.638.973 0 1.982-.02 3-.05v12c-1.019.03-2.028.05-3 .05zm1 10c-1.1045695 0-2-.8954305-2-2v-2h26v1.831c.0007072.7628117.2050792 1.5116002.592 2.169zm30-38v36c.0012405.5305618-.2101841 1.0394935-.587 1.413-.4125822.4096837-.9807021.62332-1.561.587-1.081954-.1415659-1.8817233-1.0782288-1.852-2.169v-1.831c0-1.1045695-.8954305-2-2-2h-20v-32c0-1.1045695.8954305-2 2-2h24.556c-.3599241.6053465-.5518554 1.2957468-.556 2zm2 2v-2c0-1.1045695.8954305-2 2-2s2 .8954305 2 2v2z"/><path id="Shape" d="m36.553 41.9c.2373497.1186659.5121326.1381283.7638386.0541012.251706-.084027.4596935-.2646527.5781614-.5021012l4-8c.2468713-.4942949.0462949-1.0951287-.448-1.342s-1.0951287-.0462949-1.342.448l-4 8c-.1186659.2373497-.1381283.5121326-.0541012.7638386.084027.251706.2646527.4596935.5021012.5781614z"/><path id="Shape" d="m28.375 37.781 5 4c.2790244.223291.655978.2807626.9888658.1507659.3328879-.1299968.5711366-.4277123.625-.781.0538635-.3532878-.0848414-.7084749-.3638658-.9317659l-4.025-3.219 4.024-3.219c.4313344-.345178.501178-.9746656.156-1.406s-.9746656-.501178-1.406-.156l-5 4c-.2373126.1897684-.375469.4771426-.375469.781s.1381564.5912316.375469.781z"/><path id="Shape" d="m43.219 41.625c.1657145.2072013.4069781.3400545.670678.3693128.2636998.0292583.5282179-.0474769.735322-.2133128l5-4c.2373126-.1897684.375469-.4771426.375469-.781s-.1381564-.5912316-.375469-.781l-5-4c-.4313344-.3451779-1.060822-.2753343-1.406.156-.3451779.4313344-.2753343 1.060822.156 1.406l4.025 3.219-4.024 3.219c-.2073518.1655696-.3403985.406761-.369845.6704672-.0294466.2637061.0471215.528304.212845.7355328z"/></g></g></g></svg>